<svg width="372" height="634" viewBox="0 0 372 634" fill="none" xmlns="http://www.w3.org/2000/svg">
<path d="M8 454L33 495M33 495L62 586L14 626M33 495L112 524L342 360M342 360L320 48M342 360L362 436M320 48L364 22M320 48L270 6L32 48.5L14 24" stroke="#0FA7D2" stroke-width="0.5"/>
<path d="M8 462C12.4183 462 16 458.418 16 454C16 449.582 12.4183 446 8 446C3.58172 446 0 449.582 0 454C0 458.418 3.58172 462 8 462Z" fill="#E99FA9"/>
<path d="M342 372C348.627 372 354 366.627 354 360C354 353.373 348.627 348 342 348C335.373 348 330 353.373 330 360C330 366.627 335.373 372 342 372Z" fill="#E99FA9"/>
<path d="M33 500C35.7614 500 38 497.761 38 495C38 492.239 35.7614 490 33 490C30.2386 490 28 492.239 28 495C28 497.761 30.2386 500 33 500Z" fill="#E7B871"/>
<path d="M270 12C273.314 12 276 9.31371 276 5.99999C276 2.68628 273.314 0 270 0C266.686 0 264 2.68628 264 5.99999C264 9.31371 266.686 12 270 12Z" fill="#E7B871"/>
<path d="M112 532C116.418 532 120 528.418 120 524C120 519.582 116.418 516 112 516C107.582 516 104 519.582 104 524C104 528.418 107.582 532 112 532Z" fill="#B8D870"/>
<path d="M320 58C325.523 58 330 53.5228 330 48C330 42.4771 325.523 38 320 38C314.477 38 310 42.4771 310 48C310 53.5228 314.477 58 320 58Z" fill="#B8D870"/>
<path d="M364 30C368.418 30 372 26.4183 372 22C372 17.5817 368.418 14 364 14C359.582 14 356 17.5817 356 22C356 26.4183 359.582 30 364 30Z" fill="#9898C8"/>
<path d="M62 592C65.3137 592 68 589.314 68 586C68 582.686 65.3137 580 62 580C58.6863 580 56 582.686 56 586C56 589.314 58.6863 592 62 592Z" fill="#9898C8"/>
<path d="M14 634C18.4183 634 22 630.418 22 626C22 621.582 18.4183 618 14 618C9.58172 618 6 621.582 6 626C6 630.418 9.58172 634 14 634Z" fill="#FAFAF8"/>
<path d="M32 56C36.4183 56 40 52.4183 40 48C40 43.5817 36.4183 40 32 40C27.5817 40 24 43.5817 24 48C24 52.4183 27.5817 56 32 56Z" fill="#AEDCE9"/>
<path d="M14 30C17.3137 30 20 27.3137 20 24C20 20.6863 17.3137 18 14 18C10.6863 18 8 20.6863 8 24C8 27.3137 10.6863 30 14 30Z" fill="#AEDCE9"/>
<path d="M362 442C365.314 442 368 439.314 368 436C368 432.686 365.314 430 362 430C358.686 430 356 432.686 356 436C356 439.314 358.686 442 362 442Z" fill="#AEDCE9"/>
</svg>
